<?xml version="1.0" standalone="no"?>
<!DOCTYPE svg PUBLIC "-//W3C//DTD SVG 20010904//EN"
 "http://www.w3.org/TR/2001/REC-SVG-20010904/DTD/svg10.dtd">
<svg version="1.0" xmlns="http://www.w3.org/2000/svg"
 width="700.000000pt" height="700.000000pt" viewBox="0 0 700.000000 700.000000"
 preserveAspectRatio="xMidYMid meet">
<metadata>
Created by potrace 1.11, written by Peter Selinger 2001-2013
</metadata>
<g transform="translate(0.000000,700.000000) scale(0.100000,-0.100000)"
fill="#000000" stroke="none">
<path d="M3298 6995 c-1 -2 -48 -6 -103 -10 -54 -3 -102 -8 -105 -10 -3 -1
-36 -6 -75 -10 -38 -4 -72 -8 -75 -10 -3 -2 -23 -6 -45 -9 -38 -6 -60 -10
-115 -22 -14 -3 -36 -7 -50 -10 -47 -9 -244 -65 -345 -98 -300 -100 -645 -276
-912 -468 -682 -489 -1175 -1211 -1368 -2003 -30 -122 -30 -124 -46 -210 -5
-33 -12 -71 -15 -85 -2 -14 -7 -47 -10 -75 -3 -27 -7 -61 -10 -75 -26 -154
-25 -655 1 -813 2 -12 6 -44 9 -72 3 -27 8 -61 11 -75 3 -14 7 -38 10 -55 19
-131 103 -450 144 -550 5 -11 26 -65 46 -120 234 -616 717 -1222 1280 -1602
217 -147 369 -229 650 -352 205 -90 638 -206 847 -227 35 -3 65 -7 68 -9 3 -2
50 -7 105 -11 187 -16 622 -9 720 11 11 2 43 6 70 9 60 7 233 39 330 61 407
94 862 301 1211 549 550 392 987 948 1232 1566 65 163 158 473 176 585 2 17 9
53 14 80 6 28 13 75 17 105 4 30 8 57 10 60 19 31 28 666 13 815 -11 97 -17
144 -24 185 -3 19 -8 46 -10 60 -32 191 -130 541 -189 675 -7 17 -34 78 -59
136 -43 96 -109 227 -180 354 -88 156 -265 398 -408 559 -464 518 -1062 886
-1728 1060 -121 32 -260 62 -330 71 -14 2 -38 6 -55 9 -16 2 -57 7 -90 11 -33
3 -73 8 -90 11 -36 5 -522 14 -527 9z m522 -498 c14 -3 48 -8 75 -11 79 -10
202 -32 280 -50 11 -2 42 -9 68 -15 27 -6 115 -33 197 -60 222 -73 423 -165
598 -271 40 -25 81 -50 90 -55 81 -48 257 -182 362 -274 151 -134 282 -274
413 -441 137 -175 308 -475 396 -697 87 -219 169 -522 186 -688 4 -33 8 -62
10 -66 17 -27 25 -465 12 -624 -44 -539 -235 -1056 -554 -1500 -91 -128 -94
-131 -194 -244 -373 -421 -845 -724 -1385 -890 -144 -44 -319 -83 -439 -97
-27 -3 -56 -7 -64 -10 -51 -17 -489 -25 -626 -11 -93 9 -226 26 -245 31 -8 3
-33 7 -55 11 -22 3 -47 7 -55 10 -15 4 -34 9 -95 21 -159 33 -438 135 -629
231 -177 88 -420 241 -530 334 -311 260 -517 493 -703 793 -52 85 -159 288
-195 372 -9 21 -23 55 -32 74 -80 188 -165 509 -191 725 -2 22 -8 65 -12 95
-16 115 -8 592 11 710 3 14 7 41 10 60 3 19 12 71 21 115 9 44 18 91 21 105 3
14 10 43 16 65 6 22 13 47 14 55 17 86 137 398 211 545 173 344 433 679 713
918 52 45 97 84 100 87 30 33 272 197 385 262 134 76 389 197 450 212 6 2 17
6 25 9 73 30 349 106 440 122 19 3 42 8 50 10 8 2 38 7 65 11 28 3 59 8 70 10
11 2 54 7 95 10 41 3 77 8 79 10 6 6 510 -3 541 -9z"/>
<path d="M1576 5243 c-53 -15 -67 -55 -67 -191 1 -64 3 -126 5 -137 2 -11 7
-42 10 -70 4 -27 14 -72 22 -100 8 -27 14 -51 14 -52 0 -2 -13 -29 -29 -60
-65 -129 -91 -247 -86 -393 7 -206 80 -350 242 -480 l81 -65 -68 -21 c-129
-40 -290 -142 -399 -253 -177 -180 -275 -422 -266 -656 4 -113 7 -135 36 -220
55 -159 200 -357 349 -477 215 -172 514 -291 815 -324 92 -10 336 -12 405 -3
30 4 82 10 115 13 99 11 133 16 290 47 443 86 741 225 969 451 54 54 104 98
110 98 7 0 56 -27 109 -60 53 -32 111 -67 129 -76 77 -40 225 -84 337 -101 63
-10 295 -10 356 0 224 35 442 153 558 302 49 63 131 231 151 310 26 104 30
136 31 260 0 106 -4 131 -29 208 -33 102 -82 186 -147 254 -87 92 -147 139
-235 184 -36 18 -49 29 -39 33 8 3 16 5 18 4 1 0 22 9 47 22 221 112 382 291
424 469 34 144 10 335 -58 471 -107 213 -286 341 -583 414 -130 32 -153 35
-323 43 -507 20 -981 -169 -1239 -497 -73 -92 -139 -238 -157 -345 -12 -72 -6
-248 11 -320 41 -177 166 -341 286 -375 59 -17 161 35 198 101 29 51 26 90
-13 178 -176 390 33 729 538 875 120 35 204 48 316 47 208 -1 431 -75 538
-180 81 -79 108 -153 97 -264 -15 -159 -96 -292 -230 -378 -123 -78 -339 -143
-492 -148 l-71 -2 19 72 c10 40 19 82 19 93 0 41 82 262 120 326 21 36 70 97
109 135 39 39 75 82 80 97 13 36 -18 95 -66 128 -51 35 -157 35 -223 1 -135
-71 -228 -180 -320 -375 -50 -104 -132 -340 -169 -481 -73 -282 -237 -843
-250 -857 -3 -4 -42 10 -86 32 -136 64 -206 82 -335 86 -144 4 -235 -13 -330
-64 -60 -32 -152 -123 -183 -181 -53 -97 -69 -287 -32 -380 27 -65 88 -101
174 -101 45 0 78 6 108 21 63 30 83 76 92 205 7 90 11 108 32 130 38 42 96 64
170 64 59 0 76 -5 155 -45 l89 -45 -80 -77 c-44 -43 -112 -98 -150 -123 -39
-24 -72 -47 -75 -50 -13 -14 -163 -80 -235 -103 -378 -120 -864 -163 -1154
-102 -201 42 -455 178 -544 290 -34 43 -102 165 -92 165 2 0 -2 20 -10 45 -18
60 -13 223 10 295 44 143 120 250 248 346 126 94 254 138 433 149 54 3 117 8
139 11 127 20 170 172 73 260 -24 23 -104 54 -137 54 -35 0 -176 79 -232 129
-101 90 -156 194 -166 314 l-6 71 44 -38 c60 -51 162 -98 294 -137 97 -28 124
-31 230 -31 102 0 132 4 199 27 170 56 271 157 311 312 40 151 -4 307 -114
411 -60 56 -200 126 -296 147 -122 28 -315 23 -439 -9 -96 -26 -247 -87 -278
-114 -10 -8 -18 -11 -18 -6 -1 5 -5 29 -10 54 -5 25 -12 81 -16 125 -8 108
-21 152 -48 170 -24 16 -100 27 -130 18z m889 -557 c123 -56 129 -176 13 -234
-110 -55 -328 -6 -449 101 -48 42 -40 63 40 106 114 60 296 73 396 27z m2356
-1190 c241 -20 454 -144 529 -310 107 -234 15 -544 -198 -672 -159 -96 -342
-101 -582 -16 -78 28 -220 97 -254 125 l-30 24 28 69 c16 38 32 78 37 89 13
32 115 351 144 450 15 50 38 125 51 167 l25 77 62 3 c67 3 74 3 188 -6z"/>
<path d="M2845 4041 c-133 -33 -201 -87 -230 -183 -29 -97 -18 -178 32 -230
l25 -27 -31 -33 c-58 -62 -76 -127 -59 -219 27 -148 130 -218 330 -223 105 -3
160 10 226 53 l45 29 24 -29 c13 -15 41 -33 61 -39 43 -12 122 -13 139 -2 11
7 17 93 14 205 -1 45 -2 47 -30 47 -16 0 -33 6 -39 13 -11 14 -21 76 -13 78 3
1 24 2 46 3 l40 1 0 65 c0 36 -2 83 -5 105 l-5 39 -213 2 c-249 2 -276 6 -298
40 -24 36 -6 70 43 83 72 20 103 10 123 -39 l13 -31 121 3 121 3 1 37 c2 62
-31 139 -76 180 -82 73 -261 104 -405 69z m226 -563 c0 -7 2 -22 4 -33 8 -44
-71 -91 -136 -80 -45 8 -80 45 -72 75 3 11 6 20 7 20 0 0 18 6 39 14 53 18
157 21 158 4z"/>
</g>
</svg>
